<svg id="cpu" xmlns="http://www.w3.org/2000/svg" width="19.231" height="19.231" viewBox="0 0 19.231 19.231">
  <path id="Path_7" data-name="Path 7" d="M129.653,120h-9.089a.563.563,0,0,0-.563.563v9.089a.563.563,0,0,0,.563.563h9.089a.563.563,0,0,0,.563-.563v-9.089A.563.563,0,0,0,129.653,120Zm-.563,9.089h-7.963v-7.963h7.963Zm0,0" transform="translate(-115.493 -115.493)" fill="#fff"/>
  <path id="Path_8" data-name="Path 8" d="M18.667,7.925a.563.563,0,1,0,0-1.127h-1.69V5.672h1.69a.563.563,0,1,0,0-1.127h-1.69V3.568a1.316,1.316,0,0,0-1.315-1.315h-.977V.563a.563.563,0,0,0-1.127,0v1.69H12.432V.563a.563.563,0,1,0-1.127,0v1.69H10.179V.563a.563.563,0,0,0-1.127,0v1.69H7.925V.563A.563.563,0,1,0,6.8.563v1.69H5.672V.563a.563.563,0,1,0-1.127,0v1.69H3.568A1.316,1.316,0,0,0,2.254,3.568v.977H.563a.563.563,0,1,0,0,1.127h1.69V6.8H.563a.563.563,0,1,0,0,1.127h1.69V9.052H.563a.563.563,0,0,0,0,1.127h1.69v1.127H.563a.563.563,0,1,0,0,1.127h1.69v1.127H.563a.563.563,0,0,0,0,1.127h1.69v.977a1.316,1.316,0,0,0,1.315,1.315h.977v1.69a.563.563,0,1,0,1.127,0v-1.69H6.8v1.69a.563.563,0,1,0,1.127,0v-1.69H9.052v1.69a.563.563,0,0,0,1.127,0v-1.69h1.127v1.69a.563.563,0,1,0,1.127,0v-1.69h1.127v1.69a.563.563,0,0,0,1.127,0v-1.69h.977a1.316,1.316,0,0,0,1.315-1.315v-.977h1.69a.563.563,0,1,0,0-1.127h-1.69V12.432h1.69a.563.563,0,1,0,0-1.127h-1.69V10.179h1.69a.563.563,0,1,0,0-1.127h-1.69V7.925ZM15.85,15.662a.188.188,0,0,1-.188.188H3.568a.188.188,0,0,1-.188-.188V3.568a.188.188,0,0,1,.188-.188H15.662a.188.188,0,0,1,.188.188Zm0,0" fill="#fff"/>
</svg>
