<?xml version="1.0" encoding="utf-8"?>
<!-- Generator: Adobe Illustrator 24.0.1, SVG Export Plug-In . SVG Version: 6.00 Build 0)  -->
<svg version="1.1" id="Layer_1" xmlns="http://www.w3.org/2000/svg" xmlns:xlink="http://www.w3.org/1999/xlink" x="0px" y="0px"
	 viewBox="0 0 53 46" style="enable-background:new 0 0 53 46;" xml:space="preserve">
<style type="text/css">
	.st0{fill:#474646;}
	.st1{fill:#FFFFFF;}
	.st2{fill:#FFA000;}
</style>
<g id="graf" transform="translate(0 -190)">
	<rect id="Rectangle_7" y="190" class="st0" width="53" height="46"/>
	<g id="business-and-finance" transform="translate(14 199)">
		<path id="Path_9" class="st1" d="M1.3,1.3h0.9v0.9H1.3V1.3z"/>
		<path id="Path_10" class="st1" d="M2.7,1.3h0.9v0.9H2.7V1.3z"/>
		<path id="Path_11" class="st1" d="M4,1.3h0.9v0.9H4V1.3z"/>
		<path id="Path_12" class="st1" d="M5.3,1.3h0.9v0.9H5.3V1.3z"/>
		<path id="Path_13" class="st1" d="M1.3,5.8h0.9v0.9H1.3V5.8z"/>
		<path id="Path_14" class="st1" d="M2.7,5.8h0.9v0.9H2.7V5.8z"/>
		<path id="Path_15" class="st1" d="M4,5.8h0.9v0.9H4V5.8z"/>
		<path id="Path_16" class="st1" d="M5.3,5.8h0.9v0.9H5.3V5.8z"/>
		<path id="Path_17" class="st1" d="M1.3,10.2h0.9v0.9H1.3V10.2z"/>
		<path id="Path_18" class="st1" d="M2.7,10.2h0.9v0.9H2.7V10.2z"/>
		<path id="Path_19" class="st1" d="M4,10.2h0.9v0.9H4V10.2z"/>
		<path id="Path_20" class="st1" d="M5.3,10.2h0.9v0.9H5.3V10.2z"/>
		<path id="Path_21" class="st1" d="M24,12c0-3.7-3-6.7-6.7-6.7c-0.4,0-0.9,0-1.3,0.1V4.9c0-0.2-0.2-0.4-0.4-0.4c0,0,0,0,0,0h-0.4
			V3.6h0.4c0.2,0,0.4-0.2,0.4-0.4c0,0,0,0,0,0V0.4C16,0.2,15.8,0,15.6,0c0,0,0,0,0,0H0.4C0.2,0,0,0.2,0,0.4c0,0,0,0,0,0v2.7
			c0,0.2,0.2,0.4,0.4,0.4c0,0,0,0,0,0h0.4v0.9H0.4C0.2,4.4,0,4.6,0,4.9c0,0,0,0,0,0v2.7C0,7.8,0.2,8,0.4,8c0,0,0,0,0,0h0.4v0.9H0.4
			C0.2,8.9,0,9.1,0,9.3V12c0,0.2,0.2,0.4,0.4,0.4c0,0,0,0,0,0h4v2l-0.9,0.9c-0.3-0.2-0.6-0.3-0.9-0.3c-1,0-1.8,0.8-1.8,1.8
			c0,1,0.8,1.8,1.8,1.8c1,0,1.8-0.8,1.8-1.8c0-0.3-0.1-0.6-0.2-0.9l1-1c0.1-0.1,0.1-0.2,0.1-0.3v-2.2h0.9v7.2
			c-1,0.2-1.5,1.2-1.3,2.2c0.2,1,1.2,1.5,2.2,1.3c1-0.2,1.5-1.2,1.3-2.2c-0.2-0.6-0.7-1.1-1.3-1.3v-7.2h3.6c0.2,3,2.4,5.5,5.3,6.1v1
			h-0.4c-0.2,0-0.4,0.2-0.4,0.4c0,0,0,0,0,0v7.1c0,0.2,0.2,0.4,0.4,0.4c0,0,0,0,0,0h3.6c0.2,0,0.4-0.2,0.4-0.4c0,0,0,0,0,0V20
			c0-0.2-0.2-0.4-0.4-0.4c0,0,0,0,0,0h-0.4v-1C21.8,17.9,24,15.2,24,12L24,12z M2.7,17.8c-0.5,0-0.9-0.4-0.9-0.9
			c0-0.5,0.4-0.9,0.9-0.9c0.5,0,0.9,0.4,0.9,0.9l0,0C3.6,17.4,3.2,17.8,2.7,17.8z M7.6,21.3c0,0.5-0.4,0.9-0.9,0.9
			c-0.5,0-0.9-0.4-0.9-0.9c0-0.5,0.4-0.9,0.9-0.9l0,0C7.2,20.5,7.6,20.9,7.6,21.3z M0.9,0.9h14.2v1.8H0.9V0.9z M1.8,3.6h12.5v0.9
			H1.8L1.8,3.6z M0.9,5.3h14.2v0.4c-0.9,0.3-1.6,0.8-2.3,1.4H0.9V5.3z M1.8,8H12c-0.2,0.3-0.4,0.6-0.6,0.9H1.8L1.8,8z M0.9,9.8h10.2
			c-0.2,0.6-0.3,1.2-0.4,1.8H0.9V9.8z M11.6,12c0-3.2,2.6-5.8,5.8-5.8s5.8,2.6,5.8,5.8s-2.6,5.8-5.8,5.8l0,0
			C14.2,17.8,11.6,15.2,11.6,12L11.6,12z M18.7,26.7H16v-6.2h2.7V26.7z M17.8,19.6h-0.9v-0.9c0.1,0,0.3,0,0.4,0s0.3,0,0.4,0
			L17.8,19.6z"/>
		<path id="Path_22" class="st1" d="M17.3,16c-2.2,0-4-1.8-4-4h-0.9c0,2.7,2.2,4.9,4.9,4.9V16z"/>
		<path id="Path_23" class="st1" d="M21.3,12h0.9c0-2.7-2.2-4.9-4.9-4.9V8C19.6,8,21.3,9.8,21.3,12z"/>
	</g>
	<rect id="Rectangle_8" y="190" class="st2" width="2" height="46"/>
</g>
</svg>
