<svg id="tower-pc" xmlns="http://www.w3.org/2000/svg" width="29.1" height="18.18" viewBox="0 0 29.1 18.18">
  <path id="Path_1" data-name="Path 1" d="M6.466,27.916H5.911a1.366,1.366,0,0,0-1.364,1.364v.455A.454.454,0,0,0,5,30.19h9.092a.454.454,0,0,0,.455-.455v-.455a1.366,1.366,0,0,0-1.364-1.364h-.555l-.227-.908h5.325a1.366,1.366,0,0,0,1.364-1.364V13.374a1.366,1.366,0,0,0-1.364-1.364H1.367A1.366,1.366,0,0,0,0,13.374v12.27a1.366,1.366,0,0,0,1.364,1.364H6.693Zm-.555.909h7.273a.455.455,0,0,1,.455.455H5.456a.455.455,0,0,1,.455-.455Zm5.781-.909H7.4l.227-.908h3.836Zm-10.325-15H17.728a.455.455,0,0,1,.455.455V24.28H.912V13.374a.455.455,0,0,1,.455-.455ZM.912,25.645V25.19H9.556a.457.457,0,1,0,.005,0h8.621v.455a.455.455,0,0,1-.455.455H1.367a.455.455,0,0,1-.455-.455Z" transform="translate(-0.003 -12.01)" fill="#eb6161"/>
  <path id="Path_2" data-name="Path 2" d="M51.727,12.01H45.36A1.366,1.366,0,0,0,44,13.374V28.826A1.366,1.366,0,0,0,45.36,30.19h6.367a1.366,1.366,0,0,0,1.364-1.364V13.374a1.366,1.366,0,0,0-1.364-1.364Zm-6.821,2.727h7.276v.454H44.905Zm.455-1.817h6.367a.455.455,0,0,1,.455.455v.453H44.905v-.453A.455.455,0,0,1,45.36,12.919Zm6.367,16.361H45.36a.455.455,0,0,1-.455-.455V16.1h7.276V28.826A.455.455,0,0,1,51.727,29.281Z" transform="translate(-23.991 -12.01)" fill="#eb6161"/>
  <path id="Path_3" data-name="Path 3" d="M52.361,29.732A1.364,1.364,0,1,0,51,28.368,1.366,1.366,0,0,0,52.361,29.732Zm0-1.819a.455.455,0,1,1-.455.455A.455.455,0,0,1,52.361,27.913Z" transform="translate(-27.809 -20.186)" fill="#eb6161"/>
  <path id="Path_4" data-name="Path 4" d="M53.09,39.006H49.452a.455.455,0,0,0,0,.909H53.09a.455.455,0,0,0,0-.909Z" transform="translate(-26.718 -26.73)" fill="#eb6161"/>
  <path id="Path_5" data-name="Path 5" d="M53.09,42.006H49.452a.455.455,0,0,0,0,.909H53.09a.455.455,0,0,0,0-.909Z" transform="translate(-26.718 -28.366)" fill="#eb6161"/>
  <path id="Path_6" data-name="Path 6" d="M53.09,45.006H49.452a.455.455,0,0,0,0,.909H53.09a.455.455,0,0,0,0-.909Z" transform="translate(-26.718 -30.002)" fill="#eb6161"/>
</svg>
